<?xml version="1.0" encoding="utf-8"?>
<!-- Generator: Adobe Illustrator 25.4.1, SVG Export Plug-In . SVG Version: 6.00 Build 0)  -->
<svg version="1.1" id="Layer_1" xmlns="http://www.w3.org/2000/svg" xmlns:xlink="http://www.w3.org/1999/xlink" x="0px" y="0px"
	 viewBox="0 0 1080 1080" style="enable-background:new 0 0 1080 1080;" xml:space="preserve">
<style type="text/css">
	.st0{fill:#FFFFFF;}
	.st1{fill:#3496ED;}
</style>
<g>
	<path class="st1" d="M542.23,194.39l105.3-67.51c2.05-1.31,4.78-0.58,5.9,1.58l57.44,111.12c0.74,1.43,2.25,2.3,3.86,2.23
		L839.69,236c2.43-0.11,4.43,1.89,4.32,4.32l-5.81,124.95c-0.08,1.61,0.8,3.12,2.23,3.86l111.12,57.44c2.16,1.12,2.89,3.85,1.58,5.9
		l-67.51,105.3c-0.87,1.36-0.87,3.1,0,4.46l67.51,105.3c1.31,2.05,0.58,4.78-1.58,5.9l-111.12,57.44c-1.43,0.74-2.3,2.25-2.23,3.86
		L844,839.69c0.11,2.43-1.89,4.43-4.32,4.32l-124.95-5.81c-1.61-0.08-3.12,0.8-3.86,2.23l-57.44,111.12
		c-1.12,2.16-3.85,2.89-5.9,1.58l-105.3-67.51c-1.36-0.87-3.1-0.87-4.46,0l-105.3,67.51c-2.05,1.31-4.78,0.58-5.9-1.58
		l-57.44-111.12c-0.74-1.43-2.25-2.3-3.86-2.23L240.31,844c-2.43,0.11-4.43-1.89-4.32-4.32l5.81-124.95
		c0.07-1.61-0.8-3.12-2.23-3.86l-111.12-57.44c-2.16-1.12-2.89-3.85-1.58-5.9l67.51-105.3c0.87-1.36,0.87-3.1,0-4.46l-67.51-105.3
		c-1.31-2.05-0.58-4.78,1.58-5.9l111.12-57.44c1.43-0.74,2.3-2.25,2.23-3.86L236,240.31c-0.11-2.43,1.89-4.43,4.32-4.32l124.95,5.81
		c1.61,0.07,3.12-0.8,3.86-2.23l57.44-111.12c1.12-2.16,3.85-2.89,5.9-1.58l105.3,67.51C539.13,195.26,540.87,195.26,542.23,194.39z
		"/>
	<path class="st0" d="M732.76,431.87l-30.25-30.25c-4.4-4.4-11.53-4.4-15.92,0L495.18,593.03l-100.63-95.95
		c-4.5-4.29-11.63-4.12-15.92,0.38l-31.58,33.12c-4.29,4.5-4.12,11.63,0.38,15.92l138.51,132.08c4.5,4.29,11.63,4.12,15.92-0.38
		l1.07-1.12c0.54-0.37,1.14-0.6,1.62-1.08l228.21-228.21C737.16,443.39,737.16,436.26,732.76,431.87z"/>
</g>
</svg>
